<?xml version="1.0" encoding="windows-1252" standalone="no"?>
<svg xmlns="http://www.w3.org/2000/svg" xmlns:xlink="http://www.w3.org/1999/xlink" contentStyleType="text/css" height="558px" preserveAspectRatio="none" style="width:868px;height:558px;" version="1.1" viewBox="0 0 868 558" width="868px" zoomAndPan="magnify"><defs><linearGradient id="gh17b3yv41q7b0" x1="50%" x2="50%" y1="0%" y2="100%"><stop offset="0%" stop-color="#F4F4F4"/><stop offset="100%" stop-color="#F4F4F4"/></linearGradient></defs><g><line style="stroke:#C6C6C6;stroke-width:0.5;stroke-dasharray:5.0,5.0;" x1="99" x2="99" y1="53.9688" y2="505.6875"/><line style="stroke:#C6C6C6;stroke-width:0.5;stroke-dasharray:5.0,5.0;" x1="339" x2="339" y1="53.9688" y2="505.6875"/><line style="stroke:#C6C6C6;stroke-width:0.5;stroke-dasharray:5.0,5.0;" x1="569" x2="569" y1="53.9688" y2="505.6875"/><line style="stroke:#C6C6C6;stroke-width:0.5;stroke-dasharray:5.0,5.0;" x1="808" x2="808" y1="53.9688" y2="505.6875"/><rect fill="url(#gh17b3yv41q7b0)" height="47.9688" style="stroke:#C6C6C6;stroke-width:0.5;" width="128" x="35" y="5"/><text fill="#262626" font-family="sans-serif" font-size="12" lengthAdjust="spacing" textLength="94" x="52" y="33.1387">User's Browser</text><rect fill="url(#gh17b3yv41q7b0)" height="47.9688" style="stroke:#C6C6C6;stroke-width:0.5;" width="128" x="35" y="504.6875"/><text fill="#262626" font-family="sans-serif" font-size="12" lengthAdjust="spacing" textLength="94" x="52" y="532.8262">User's Browser</text><rect fill="url(#gh17b3yv41q7b0)" height="47.9688" style="stroke:#C6C6C6;stroke-width:0.5;" width="90" x="294" y="5"/><text fill="#262626" font-family="sans-serif" font-size="12" lengthAdjust="spacing" textLength="56" x="311" y="33.1387">Web App</text><rect fill="url(#gh17b3yv41q7b0)" height="47.9688" style="stroke:#C6C6C6;stroke-width:0.5;" width="90" x="294" y="504.6875"/><text fill="#262626" font-family="sans-serif" font-size="12" lengthAdjust="spacing" textLength="56" x="311" y="532.8262">Web App</text><rect fill="url(#gh17b3yv41q7b0)" height="47.9688" style="stroke:#C6C6C6;stroke-width:0.5;" width="231" x="454" y="5"/><text fill="#262626" font-family="sans-serif" font-size="12" lengthAdjust="spacing" textLength="197" x="471" y="33.1387">Identity Provider (e.g., Keycloak)</text><rect fill="url(#gh17b3yv41q7b0)" height="47.9688" style="stroke:#C6C6C6;stroke-width:0.5;" width="231" x="454" y="504.6875"/><text fill="#262626" font-family="sans-serif" font-size="12" lengthAdjust="spacing" textLength="197" x="471" y="532.8262">Identity Provider (e.g., Keycloak)</text><rect fill="url(#gh17b3yv41q7b0)" height="47.9688" style="stroke:#C6C6C6;stroke-width:0.5;" width="107" x="755" y="5"/><text fill="#262626" font-family="sans-serif" font-size="12" lengthAdjust="spacing" textLength="73" x="772" y="33.1387">Backend API</text><rect fill="url(#gh17b3yv41q7b0)" height="47.9688" style="stroke:#C6C6C6;stroke-width:0.5;" width="107" x="755" y="504.6875"/><text fill="#262626" font-family="sans-serif" font-size="12" lengthAdjust="spacing" textLength="73" x="772" y="532.8262">Backend API</text><polygon fill="#C6C6C6" points="327,99.9375,337,103.9375,327,107.9375,331,103.9375" style="stroke:#C6C6C6;stroke-width:1.0;"/><line style="stroke:#C6C6C6;stroke-width:1.0;" x1="99" x2="333" y1="103.9375" y2="103.9375"/><text fill="#262626" font-family="sans-serif" font-size="12" lengthAdjust="spacing" textLength="134" x="116" y="89.1074">Access dashboard (1)</text><polygon fill="#C6C6C6" points="110,147.9063,100,151.9063,110,155.9063,106,151.9063" style="stroke:#C6C6C6;stroke-width:1.0;"/><line style="stroke:#C6C6C6;stroke-width:1.0;" x1="104" x2="338" y1="151.9063" y2="151.9063"/><text fill="#262626" font-family="sans-serif" font-size="12" lengthAdjust="spacing" textLength="162" x="126" y="137.0762">Authentication required (2)</text><polygon fill="#C6C6C6" points="557.5,195.875,567.5,199.875,557.5,203.875,561.5,199.875" style="stroke:#C6C6C6;stroke-width:1.0;"/><line style="stroke:#C6C6C6;stroke-width:1.0;" x1="99" x2="563.5" y1="199.875" y2="199.875"/><text fill="#262626" font-family="sans-serif" font-size="12" lengthAdjust="spacing" textLength="156" x="116" y="185.0449">Redirect to login page (2)</text><polygon fill="#C6C6C6" points="110,243.8438,100,247.8438,110,251.8438,106,247.8438" style="stroke:#C6C6C6;stroke-width:1.0;"/><line style="stroke:#C6C6C6;stroke-width:1.0;" x1="104" x2="568.5" y1="247.8438" y2="247.8438"/><text fill="#262626" font-family="sans-serif" font-size="12" lengthAdjust="spacing" textLength="123" x="126" y="233.0137">Show login page (2)</text><polygon fill="#C6C6C6" points="557.5,291.8125,567.5,295.8125,557.5,299.8125,561.5,295.8125" style="stroke:#C6C6C6;stroke-width:1.0;"/><line style="stroke:#C6C6C6;stroke-width:1.0;" x1="99" x2="563.5" y1="295.8125" y2="295.8125"/><text fill="#262626" font-family="sans-serif" font-size="12" lengthAdjust="spacing" textLength="134" x="116" y="280.9824">Submit credentials (3)</text><polygon fill="#C6C6C6" points="110,339.7813,100,343.7813,110,347.7813,106,343.7813" style="stroke:#C6C6C6;stroke-width:1.0;"/><line style="stroke:#C6C6C6;stroke-width:1.0;" x1="104" x2="568.5" y1="343.7813" y2="343.7813"/><text fill="#262626" font-family="sans-serif" font-size="12" lengthAdjust="spacing" textLength="119" x="126" y="328.9512">Issue JWT token (4)</text><polygon fill="#C6C6C6" points="796.5,387.75,806.5,391.75,796.5,395.75,800.5,391.75" style="stroke:#C6C6C6;stroke-width:1.0;"/><line style="stroke:#C6C6C6;stroke-width:1.0;" x1="339" x2="802.5" y1="391.75" y2="391.75"/><text fill="#262626" font-family="sans-serif" font-size="12" lengthAdjust="spacing" textLength="159" x="356" y="376.9199">Fetch data using token (5)</text><polygon fill="#C6C6C6" points="350,435.7188,340,439.7188,350,443.7188,346,439.7188" style="stroke:#C6C6C6;stroke-width:1.0;"/><line style="stroke:#C6C6C6;stroke-width:1.0;" x1="344" x2="807.5" y1="439.7188" y2="439.7188"/><text fill="#262626" font-family="sans-serif" font-size="12" lengthAdjust="spacing" textLength="135" x="366" y="424.8887">Return requested data</text><polygon fill="#C6C6C6" points="110,483.6875,100,487.6875,110,491.6875,106,487.6875" style="stroke:#C6C6C6;stroke-width:1.0;"/><line style="stroke:#C6C6C6;stroke-width:1.0;" x1="104" x2="338" y1="487.6875" y2="487.6875"/><text fill="#262626" font-family="sans-serif" font-size="12" lengthAdjust="spacing" textLength="196" x="126" y="472.8574">Display personalized dashboard</text><!--SRC=[RP1FJyCm3CNl_HHc5rg9JUBVfGUaJGYfS9asqCvkOhNHkYGaBbFvz7XTGUl6oPRUp_PxlkAQTWGAG-dij0hO9Hu36sKyMeR9HwHm7M4Ht5ww2U1VF-OsLCBS-nwGNjgnNcYoRBY3PN1VHbE0b6RLx0RUg5EDmstMZnPwEPvReDgIrJ1V5ZqWDKa61p1z6cxbC5UAOWIDiIuT1WtfRPOSnGCsJ0ZNIc1nef2Din3eipM11B_BJjUAZnnMf4LJ3EoWSPMnuB6Y7XLzj7PTk_qvSxvktPOxmw3atC41DX7I-yjLHOmjmUlcNSvAT4WVJeD8_XnUY5KjMHcXZSPMl-HZbeX- -fOLSHkECIcov3mC_VUNPnDzWnru2j5PRCnt3m_V_040]--></g></svg>