<svg xmlns="http://www.w3.org/2000/svg" xmlns:xlink="http://www.w3.org/1999/xlink" xmlns:lucid="lucid" width="882.5" height="409.33"><g transform="translate(-185.5 -230.66666666662786)" lucid:page-tab-id="0_0"><path d="M0 0h1500v1000H0z" fill="#fff"/><path d="M274.92 275.27c0 13.68-11.13 24.72-24.92 24.72-13.8 0-24.92-11.05-24.92-24.73 0-13.56 11.13-24.6 24.92-24.6 13.8 0 24.92 11.04 24.92 24.6m-6.68 33.12L250 333.7l-18.25-25.3H205.5v62.27h89V308.4z" stroke="#000" stroke-opacity="0" stroke-width="3" fill="#59b4d9"/><path d="M205.5 308.38v62.3h89v-62.3l-27.32-17.92 4.7-21.7L250.63 252l-23.23 18.86 5.96 20.65z" stroke="#000" stroke-opacity="0" stroke-width="0" fill-opacity="0"/><use xlink:href="#a" transform="matrix(1,0,0,1,175.5,379.66666666662786) translate(57.525 14.4)"/><path d="M295 334.67h200.12" stroke="#3a414a" fill="none"/><path d="M295 335.17h-.5v-1h.5z" stroke="#3a414a" stroke-width=".05" fill="#3a414a"/><path d="M509.88 334.67l-14.26 4.64v-9.26z" stroke="#3a414a" fill="#3a414a"/><use xlink:href="#b" transform="matrix(1,0,0,1,348.7779381014485,309.33334667877307) translate(0 14.222222222222223)"/><use xlink:href="#c" transform="matrix(1,0,0,1,348.7779381014485,309.33334667877307) translate(41.4320987654321 14.222222222222223)"/><path d="M510 282a6 6 0 0 1 6-6h153.33a6 6 0 0 1 6 6v105.33a6 6 0 0 1-6 6H516a6 6 0 0 1-6-6z" stroke="#3a414a" fill="#fff"/><use xlink:href="#d" transform="matrix(1,0,0,1,514.9999999999613,280.9999999999612) translate(55.77777777777778 58.27777777777778)"/><path d="M510 508.67a6 6 0 0 1 6-6h153.33a6 6 0 0 1 6 6V614a6 6 0 0 1-6 6H516a6 6 0 0 1-6-6z" stroke="#3a414a" fill="#fff"/><use xlink:href="#e" transform="matrix(1,0,0,1,514.9999999999613,507.6666666666667) translate(55.19135802469136 58.27777777777778)"/><path d="M592.67 394.33v91.45" stroke="#3a414a" fill="none"/><path d="M593.17 394.35h-1v-.52h1z" stroke="#3a414a" stroke-width=".05" fill="#3a414a"/><path d="M592.67 500.55l-4.64-14.27h9.27z" stroke="#3a414a" fill="#3a414a"/><path d="M427 530c24.85 0 45 20.15 45 45s-20.15 45-45 45H303.67c-24.86 0-45-20.15-45-45s20.14-45 45-45z" fill="#fff"/><path d="M430.53 530.2l1.52.08 1.48.25m2 .34l1.43.24 1.5.44m1.95.55l1.33.37 1.53.63m1.87.76l1.2.5 1.52.82m1.77.97l1.08.6 1.48 1.02m1.65 1.16l.98.7 1.38 1.2m1.52 1.33l.88.78 1.25 1.37m1.35 1.5l.77.86 1.1 1.52m1.2 1.64l.64.9.94 1.66m1 1.76l.5.92.8 1.8m.78 1.87l.4.9.58 1.96m.58 1.92l.26.86.38 2.1m.37 2l.14.8.16 2.2m.14 2l.06.82v.7l-.08 1.5m-.12 2.03l-.08 1.52-.25 1.48m-.34 2l-.24 1.43-.44 1.5m-.55 1.95l-.37 1.33-.63 1.53m-.76 1.87l-.5 1.2-.82 1.52m-.97 1.77l-.6 1.08-1.02 1.48m-1.16 1.65l-.7.97-1.2 1.38m-1.33 1.52l-.78.88-1.37 1.25m-1.5 1.35l-.86.78-1.52 1.1m-1.64 1.18l-.9.65-1.66.94m-1.76 1l-.92.5-1.8.8m-1.87.78l-.9.4-1.96.58m-1.92.58l-.86.26-2.1.38m-1.98.37l-.8.14-2.2.15m-2.03.14l-.8.05H425.52m-1.97 0h-2.96m-2 0h-2.95m-1.97 0h-2.96m-1.97 0h-2.96m-2 0h-2.95m-1.97 0h-2.96m-1.97 0H391m-2 0h-2.95m-1.97 0h-2.96m-1.97 0h-2.96m-2 0h-2.95m-1.97 0h-2.96m-1.97 0h-2.96m-2 0h-2.95m-1.97 0h-2.96m-1.97 0h-2.96m-2 0h-2.95m-1.97 0h-2.96m-1.97 0h-2.96m-2 0h-2.95m-1.97 0h-2.96m-1.97 0H317m-2 0h-2.95m-1.97 0h-2.96m-1.97 0h-1.48l-1.52-.08m-2-.12l-1.53-.08-1.5-.25m-1.98-.34l-1.43-.24-1.5-.44m-1.95-.55l-1.3-.37-1.55-.63m-1.87-.76l-1.2-.5-1.5-.82m-1.8-.97l-1.06-.6-1.48-1.02m-1.66-1.16l-.98-.7-1.38-1.2m-1.5-1.33l-.9-.78-1.24-1.37m-1.36-1.5l-.77-.86-1.1-1.52m-1.17-1.64l-.66-.9-.94-1.66m-1-1.76l-.52-.92-.76-1.8m-.8-1.87l-.38-.9-.6-1.96m-.57-1.92l-.27-.86-.4-2.1m-.35-2l-.15-.8-.16-2.2m-.14-2l-.06-.82v-.7l.08-1.5m.1-2.03l.1-1.52.25-1.48m.33-2l.24-1.43.43-1.5m.56-1.95l.37-1.33.63-1.53m.77-1.87l.5-1.2.82-1.52m.97-1.77l.6-1.08 1.02-1.48m1.16-1.65l.68-.97 1.22-1.38m1.33-1.52l.77-.88 1.38-1.25m1.5-1.35l.84-.78 1.53-1.1m1.63-1.18l.9-.65 1.67-.94m1.76-1l.93-.5 1.8-.8m1.87-.78l.9-.4 1.96-.58m1.93-.58l.84-.26 2.1-.38m2-.37l.8-.14 2.2-.15m2-.14l.83-.05H305.15m1.97 0h2.96m1.97 0H315m2 0h2.95m1.97 0h2.96m1.97 0h2.96m2 0h2.95m1.97 0h2.96m1.97 0h2.96m2 0h2.95m1.97 0h2.96m1.97 0h2.96m2 0h2.95m1.97 0h2.96m1.97 0h2.96m2 0h2.95m1.97 0h2.96m1.97 0H389m2 0h2.95m1.97 0h2.96m1.97 0h2.96m2 0h2.95m1.97 0h2.96m1.97 0h2.96m2 0h2.95m1.97 0H427l1.5.08" stroke="#3a414a" fill="none"/><use xlink:href="#f" transform="matrix(1,0,0,1,263.66666666662786,535) translate(53.2962962962963 17.77777777777778)"/><use xlink:href="#g" transform="matrix(1,0,0,1,263.66666666662786,535) translate(108.79012345679013 17.77777777777778)"/><use xlink:href="#h" transform="matrix(1,0,0,1,263.66666666662786,535) translate(43.41975308641976 44.44444444444444)"/><use xlink:href="#i" transform="matrix(1,0,0,1,263.66666666662786,535) translate(114.96296296296296 44.44444444444444)"/><use xlink:href="#j" transform="matrix(1,0,0,1,263.66666666662786,535) translate(13.20370370370371 71.11111111111111)"/><use xlink:href="#k" transform="matrix(1,0,0,1,263.66666666662786,535) translate(111.84567901234567 71.11111111111111)"/><path d="M365.34 529l.1-3.92.24-4.1.22-2.05m1.65-9.94l.43-1.87.83-3 .94-2.83 1-2.72 1.1-2.6 1.2-2.52 1.26-2.43.46-.8m5.63-8.35l1.7-2.05 1.9-2.1 2.02-2.08 2.2-2.06 2.35-2.05 2.56-2.02 1.93-1.4m8.53-5.37l2.3-1.28 4.06-2 4.53-2.02 5.08-2 2.43-.86m9.62-3.05l.38-.12 7.72-1.97 9.14-1.94 2.43-.4m9.94-1.63l12.5-1.57 7.55-.63m10.04-.83l.64-.06 19.5-.77m10.1-.3h20.16m10.1 0H572m10.08 0h10.1" stroke="#3a414a" stroke-linejoin="round" fill="none"/><path d="M365.84 529v.5h-1v-.53z" stroke="#3a414a" stroke-width=".05" fill="#3a414a"/><path d="M592.15 441.33h.52M625.33 501.67v-2.08m0-4.17v-4.16m0-4.15v-4.16m0-4.16v-4.15m0-4.16v-4.17m0-4.15v-4.16m0-4.16v-4.15m0-4.15v-4.16m0-4.16v-4.16m0-4.16v-4.15m0-4.16v-4.15m0-4.15v-2.08" stroke="#3a414a" fill="none"/><path d="M625.83 502.17h-1v-.52h1z" stroke="#3a414a" stroke-width=".05" fill="#3a414a"/><path d="M625.33 395.45l4.64 14.27h-9.27z" stroke="#3a414a" fill="#3a414a"/><use xlink:href="#l" transform="matrix(1,0,0,1,633.3333382246565,446.6666666666666) translate(0 14.222222222222223)"/><path d="M976 294.67c22.1 0 40 17.9 40 40s-17.9 40-40 40H842.67c-22.1 0-40-17.9-40-40s17.9-40 40-40z" fill="#fff"/><path d="M979.38 294.88l1.66.1 1.2.23m1.9.37l1.8.34 1.02.34m1.84.6l1.85.6.86.4m1.76.82l1.9.88.68.44m1.64 1.03l1.9 1.2.5.42m1.5 1.22l1.88 1.55.3.33m1.34 1.4l1.82 1.9.15.22m1.14 1.56l1.68 2.28.04.07m.94 1.7l1.4 2.52m.75 1.8l1.1 2.68m.5 1.86l.75 2.8m.3 1.92l.38 2.87m.12 1.92l.05 1.45-.1 1.44m-.1 1.94l-.1 1.66-.24 1.22m-.36 1.9l-.34 1.77-.34 1.03m-.6 1.84l-.6 1.84-.4.88m-.8 1.75l-.9 1.9-.43.68m-1.04 1.64l-1.2 1.9-.4.5m-1.24 1.5l-1.55 1.9-.33.3m-1.4 1.33l-1.92 1.8-.2.17m-1.56 1.14l-2.28 1.67-.07.04m-1.67.93l-2.54 1.4m-1.8.74l-2.68 1.1m-1.86.5l-2.8.74m-1.9.3l-2.88.4m-1.93.12l-1.45.05h-1.48m-1.98 0h-2.96m-1.98 0h-2.96m-1.97 0h-2.97m-1.97 0h-2.97m-1.97 0h-2.97m-1.98 0h-2.96m-2 0h-2.95m-1.98 0H935m-1.96 0h-2.97m-1.97 0h-2.96m-1.98 0h-2.96m-1.98 0h-2.96m-1.98 0h-2.96m-1.97 0h-2.97m-1.97 0h-2.96m-1.97 0h-2.96m-1.97 0h-2.96m-1.98 0h-2.97m-1.98 0h-2.96m-1.98 0h-2.97m-1.97 0h-2.96m-1.98 0h-2.96m-1.98 0h-2.96m-1.98 0H856m-1.98 0h-2.96m-1.97 0h-2.98m-1.97 0h-1.48l-1.45-.1m-1.93-.1l-1.67-.12-1.2-.23m-1.9-.36l-1.8-.33-1.02-.34m-1.83-.6l-1.85-.6-.87-.4m-1.75-.82l-1.88-.9-.7-.42m-1.63-1.03l-1.9-1.2-.5-.42m-1.5-1.2l-1.9-1.56-.3-.33m-1.34-1.4l-1.8-1.9-.17-.22m-1.15-1.56l-1.67-2.27-.03-.07m-.95-1.7l-1.4-2.52m-.74-1.8l-1.08-2.68m-.52-1.86l-.74-2.8m-.3-1.9l-.38-2.88m-.12-1.93l-.05-1.43.1-1.45m.1-1.93l.1-1.67.24-1.2m.37-1.9l.34-1.8.34-1.03m.6-1.83l.6-1.85.4-.87m.82-1.75l.88-1.88.44-.7m1.03-1.63l1.2-1.9.42-.5m1.22-1.5l1.55-1.9.33-.3m1.4-1.34l1.9-1.8.22-.16m1.56-1.15l2.28-1.67.07-.04m1.7-.94l2.52-1.4m1.8-.74l2.68-1.08m1.86-.52l2.8-.74m1.92-.3l2.87-.38m1.92-.12l1.45-.05h1.48m1.97 0h2.97m1.96 0h2.97m1.97 0h2.96m1.98 0h2.96m1.98 0h2.96m1.98 0h2.96m1.97 0h2.97m1.97 0h2.95m1.98 0h2.96m1.97 0h2.96m1.98 0h2.97m1.97 0h2.97m1.98 0h2.97m1.97 0h2.96m1.98 0h2.96m1.98 0h2.96m1.98 0h2.96m1.97 0h2.97m1.97 0H938m1.97 0h2.96m2 0h2.95m1.98 0h2.96m1.97 0h2.96m1.97 0h2.97m1.97 0h2.97m1.98 0h2.96m1.98 0H976l1.45.1" stroke="#3a414a" fill="none"/><use xlink:href="#m" transform="matrix(1,0,0,1,807.6666666666667,299.66666666662786) translate(54.504999999999995 26.52777777777778)"/><use xlink:href="#n" transform="matrix(1,0,0,1,807.6666666666667,299.66666666662786) translate(54.535864197530856 53.19444444444445)"/><path d="M676.33 334.67h109.45" stroke="#3a414a" fill="none"/><path d="M676.35 335.17h-.52v-1h.52z" stroke="#3a414a" stroke-width=".05" fill="#3a414a"/><path d="M800.55 334.67l-14.27 4.63v-9.27z" stroke="#3a414a" fill="#3a414a"/><path d="M1023.94 324.85h-31.9c-.9 0-1.7-.77-1.7-1.72v-27.2c0-.95.8-1.72 1.7-1.72h31.93c.92 0 1.7.78 1.7 1.73v27.2c0 .95-.78 1.72-1.7 1.72h-.03zm-30.2-3.4h28.5V297.6h-28.5z" stroke="#fff" stroke-opacity="0" fill="#232f3e"/><path d="M1015.85 295.93v-6.9-.04c-.18-4.18-3.68-7.4-7.84-7.23-4.15-.16-7.65 3.04-7.85 7.18v6.94h-3.42v-6.95c.2-6.02 5.24-10.77 11.28-10.6 6.03-.12 11.04 4.66 11.2 10.7v6.8zM1008 312.5c-3.1 0-5.6-2.5-5.6-5.6 0-3.08 2.5-5.6 5.6-5.6 3.08 0 5.6 2.5 5.6 5.57v.04c0 3.1-2.5 5.6-5.57 5.6h-.03zm0-7.8c-1.2 0-2.2 1-2.2 2.2 0 1.22 1 2.2 2.2 2.2h.03c1.2 0 2.18-1 2.17-2.2 0-.6-.22-1.12-.65-1.54-.42-.43-.94-.66-1.55-.65z" stroke="#fff" stroke-opacity="0" fill="#232f3e"/><path d="M1006.3 310.38h3.4v7.98h-3.4v-7.98z" stroke="#fff" stroke-opacity="0" fill="#232f3e"/><path d="M1008 344c-.4 0-.72-.08-1.04-.32-5.6-4.08-11.12-6.56-17.92-8-13.2-2.4-21.04-9.52-21.04-19.2.16-4.96 1.52-9.04 4.24-13.12 1.68-2.96 3.2-5.52 3.2-9.04-.16-4.88-2.08-8.96-5.76-12.16-.4-.32-.56-.72-.64-1.2 0-.48.08-.88.4-1.2 0-.16 9.36-11.44 11.52-14.32.56-.8 1.6-.96 2.4-.4l.24.24c3.04 3.6 6.96 5.6 11.68 5.84 4.48 0 7.92-2 11.36-6.48.56-.72 1.68-.88 2.4-.32l.32.32c3.36 4.48 6.88 6.48 11.36 6.48 4.72-.24 8.64-2.24 11.68-5.84.4-.4.88-.56 1.36-.56.56.08.96.32 1.28.72 2.16 2.88 11.44 14.16 11.52 14.32.32.32.4.72.4 1.2-.08.48-.24.88-.64 1.2-3.68 3.2-5.6 7.28-5.76 12.16 0 3.52 1.44 6.08 3.2 9.04 2.72 4.08 4.08 8.16 4.24 13.12 0 9.68-7.84 16.8-21.04 19.2-6.8 1.44-12.32 3.92-17.92 8-.32.24-.64.32-1.04.32zm-34.96-63.36c3.76 3.84 5.68 8.32 5.84 13.6-.24 4.08-1.36 7.44-3.68 10.8-1.92 3.36-3.76 6.48-3.76 11.36 0 11.68 13.92 15.12 18.16 15.92 6.96 1.44 12.56 3.84 18.4 7.92 5.84-4.08 11.44-6.48 18.4-7.92 4.24-.8 18.16-4.16 18.16-15.84 0-4.88-1.84-8.08-3.76-11.44-2.32-3.28-3.44-6.72-3.68-10.72.16-5.36 2.08-9.84 5.84-13.6-2.16-2.56-6.96-8.4-9.44-11.68-3.52 3.52-7.76 5.28-12.8 5.44-5.12.08-9.52-2.08-12.72-6.08-3.2 4-7.6 6.08-12.72 6.08-5.04-.16-9.28-1.92-12.8-5.44-2.48 3.28-7.28 9.12-9.44 11.6z" stroke="#fff" stroke-opacity="0" fill="#232f3e"/><defs><path d="M24-231v-30h32v30H24zM-9 49c24 4 33-6 33-30v-209h32V24c2 40-23 58-65 49V49" id="o"/><path d="M100-194c62-1 85 37 85 99 1 63-27 99-86 99S16-35 15-95c0-66 28-99 85-99zM99-20c44 1 53-31 53-75 0-43-8-75-51-75s-53 32-53 75 10 74 51 75" id="p"/><path d="M106-169C34-169 62-67 57 0H25v-261h32l-1 103c12-21 28-36 61-36 89 0 53 116 60 194h-32v-121c2-32-8-49-39-48" id="q"/><path d="M117-194c89-4 53 116 60 194h-32v-121c0-31-8-49-39-48C34-167 62-67 57 0H25l-1-190h30c1 10-1 24 2 32 11-22 29-35 61-36" id="r"/><g id="a"><use transform="matrix(0.05,0,0,0.05,0,0)" xlink:href="#o"/><use transform="matrix(0.05,0,0,0.05,3.95,0)" xlink:href="#p"/><use transform="matrix(0.05,0,0,0.05,13.949999999999998,0)" xlink:href="#q"/><use transform="matrix(0.05,0,0,0.05,23.95,0)" xlink:href="#r"/></g><path fill="#333" d="M67-125c0 54 23 88 75 88 28 0 53-7 68-21v-34h-60v-39h108v91C232-14 192 4 140 4 58 4 20-42 15-125 8-236 126-280 215-234c19 10 29 26 37 47l-47 15c-11-23-29-39-63-39-53 1-75 33-75 86" id="s"/><path fill="#333" d="M24 0v-248h195v40H76v63h132v40H76v65h150V0H24" id="t"/><path fill="#333" d="M136-208V0H84v-208H4v-40h212v40h-80" id="u"/><g id="b"><use transform="matrix(0.04938271604938272,0,0,0.04938271604938272,0,0)" xlink:href="#s"/><use transform="matrix(0.04938271604938272,0,0,0.04938271604938272,13.827160493827162,0)" xlink:href="#t"/><use transform="matrix(0.04938271604938272,0,0,0.04938271604938272,25.679012345679016,0)" xlink:href="#u"/></g><path fill="#333" d="M4 7l51-268h42L46 7H4" id="v"/><path fill="#333" d="M135-194c52 0 70 43 70 98 0 56-19 99-73 100-30 1-46-15-58-35L72 0H24l1-261h50v104c11-23 29-37 60-37zM114-30c31 0 40-27 40-66 0-37-7-63-39-63s-41 28-41 65c0 36 8 64 40 64" id="w"/><path fill="#333" d="M25 0v-261h50V0H25" id="x"/><path fill="#333" d="M110-194c64 0 96 36 96 99 0 64-35 99-97 99-61 0-95-36-95-99 0-62 34-99 96-99zm-1 164c35 0 45-28 45-65 0-40-10-65-43-65-34 0-45 26-45 65 0 36 10 65 43 65" id="y"/><path fill="#333" d="M195-6C206 82 75 100 31 46c-4-6-6-13-8-21l49-6c3 16 16 24 34 25 40 0 42-37 40-79-11 22-30 35-61 35-53 0-70-43-70-97 0-56 18-96 73-97 30 0 46 14 59 34l2-30h47zm-90-29c32 0 41-27 41-63 0-35-9-62-40-62-32 0-39 29-40 63 0 36 9 62 39 62" id="z"/><path fill="#333" d="M165-50V0h-47v-50H5v-38l105-160h55v161h33v37h-33zm-47-37l2-116L46-87h72" id="A"/><path fill="#333" d="M182-182c0 78-84 86-111 141h115V0H12c-6-101 99-100 120-180 1-22-12-31-33-32-23 0-32 14-35 34l-49-3c5-45 32-70 84-70 51 0 83 22 83 69" id="B"/><g id="c"><use transform="matrix(0.04938271604938272,0,0,0.04938271604938272,0,0)" xlink:href="#v"/><use transform="matrix(0.04938271604938272,0,0,0.04938271604938272,4.938271604938272,0)" xlink:href="#w"/><use transform="matrix(0.04938271604938272,0,0,0.04938271604938272,15.753086419753087,0)" xlink:href="#x"/><use transform="matrix(0.04938271604938272,0,0,0.04938271604938272,20.69135802469136,0)" xlink:href="#y"/><use transform="matrix(0.04938271604938272,0,0,0.04938271604938272,31.506172839506174,0)" xlink:href="#z"/><use transform="matrix(0.04938271604938272,0,0,0.04938271604938272,42.320987654320994,0)" xlink:href="#v"/><use transform="matrix(0.04938271604938272,0,0,0.04938271604938272,47.25925925925927,0)" xlink:href="#A"/><use transform="matrix(0.04938271604938272,0,0,0.04938271604938272,57.135802469135804,0)" xlink:href="#B"/></g><path fill="#3a414a" d="M30-248c87 1 191-15 191 75 0 78-77 80-158 76V0H30v-248zm33 125c57 0 124 11 124-50 0-59-68-47-124-48v98" id="C"/><path fill="#3a414a" d="M30 0v-248h187v28H63v79h144v27H63v87h162V0H30" id="D"/><g id="d"><use transform="matrix(0.06172839506172839,0,0,0.06172839506172839,0,0)" xlink:href="#C"/><use transform="matrix(0.06172839506172839,0,0,0.06172839506172839,14.814814814814813,0)" xlink:href="#D"/><use transform="matrix(0.06172839506172839,0,0,0.06172839506172839,29.629629629629626,0)" xlink:href="#C"/></g><path fill="#3a414a" d="M30-248c118-7 216 8 213 122C240-48 200 0 122 0H30v-248zM63-27c89 8 146-16 146-99s-60-101-146-95v194" id="E"/><g id="e"><use transform="matrix(0.06172839506172839,0,0,0.06172839506172839,0,0)" xlink:href="#C"/><use transform="matrix(0.06172839506172839,0,0,0.06172839506172839,14.814814814814813,0)" xlink:href="#E"/><use transform="matrix(0.06172839506172839,0,0,0.06172839506172839,30.80246913580247,0)" xlink:href="#C"/></g><path fill="#3a414a" d="M84 4C-5 8 30-112 23-190h32v120c0 31 7 50 39 49 72-2 45-101 50-169h31l1 190h-30c-1-10 1-25-2-33-11 22-28 36-60 37" id="F"/><path fill="#3a414a" d="M135-143c-3-34-86-38-87 0 15 53 115 12 119 90S17 21 10-45l28-5c4 36 97 45 98 0-10-56-113-15-118-90-4-57 82-63 122-42 12 7 21 19 24 35" id="G"/><path fill="#3a414a" d="M100-194c63 0 86 42 84 106H49c0 40 14 67 53 68 26 1 43-12 49-29l28 8c-11 28-37 45-77 45C44 4 14-33 15-96c1-61 26-98 85-98zm52 81c6-60-76-77-97-28-3 7-6 17-6 28h103" id="H"/><path fill="#3a414a" d="M114-163C36-179 61-72 57 0H25l-1-190h30c1 12-1 29 2 39 6-27 23-49 58-41v29" id="I"/><path fill="#3a414a" d="M33-154v-36h34v36H33zM33 0v-36h34V0H33" id="J"/><g id="f"><use transform="matrix(0.06172839506172839,0,0,0.06172839506172839,0,0)" xlink:href="#F"/><use transform="matrix(0.06172839506172839,0,0,0.06172839506172839,12.345679012345679,0)" xlink:href="#G"/><use transform="matrix(0.06172839506172839,0,0,0.06172839506172839,23.45679012345679,0)" xlink:href="#H"/><use transform="matrix(0.06172839506172839,0,0,0.06172839506172839,35.80246913580247,0)" xlink:href="#I"/><use transform="matrix(0.06172839506172839,0,0,0.06172839506172839,43.148148148148145,0)" xlink:href="#J"/></g><path fill="#3a414a" d="M24-231v-30h32v30H24zM-9 49c24 4 33-6 33-30v-209h32V24c2 40-23 58-65 49V49" id="K"/><path fill="#3a414a" d="M100-194c62-1 85 37 85 99 1 63-27 99-86 99S16-35 15-95c0-66 28-99 85-99zM99-20c44 1 53-31 53-75 0-43-8-75-51-75s-53 32-53 75 10 74 51 75" id="L"/><path fill="#3a414a" d="M106-169C34-169 62-67 57 0H25v-261h32l-1 103c12-21 28-36 61-36 89 0 53 116 60 194h-32v-121c2-32-8-49-39-48" id="M"/><path fill="#3a414a" d="M117-194c89-4 53 116 60 194h-32v-121c0-31-8-49-39-48C34-167 62-67 57 0H25l-1-190h30c1 10-1 24 2 32 11-22 29-35 61-36" id="N"/><g id="g"><use transform="matrix(0.06172839506172839,0,0,0.06172839506172839,0,0)" xlink:href="#K"/><use transform="matrix(0.06172839506172839,0,0,0.06172839506172839,4.876543209876543,0)" xlink:href="#L"/><use transform="matrix(0.06172839506172839,0,0,0.06172839506172839,17.22222222222222,0)" xlink:href="#M"/><use transform="matrix(0.06172839506172839,0,0,0.06172839506172839,29.5679012345679,0)" xlink:href="#N"/></g><path fill="#3a414a" d="M141-36C126-15 110 5 73 4 37 3 15-17 15-53c-1-64 63-63 125-63 3-35-9-54-41-54-24 1-41 7-42 31l-33-3c5-37 33-52 76-52 45 0 72 20 72 64v82c-1 20 7 32 28 27v20c-31 9-61-2-59-35zM48-53c0 20 12 33 32 33 41-3 63-29 60-74-43 2-92-5-92 41" id="O"/><path fill="#3a414a" d="M96-169c-40 0-48 33-48 73s9 75 48 75c24 0 41-14 43-38l32 2c-6 37-31 61-74 61-59 0-76-41-82-99-10-93 101-131 147-64 4 7 5 14 7 22l-32 3c-4-21-16-35-41-35" id="P"/><path fill="#3a414a" d="M59-47c-2 24 18 29 38 22v24C64 9 27 4 27-40v-127H5v-23h24l9-43h21v43h35v23H59v120" id="Q"/><path fill="#3a414a" d="M24-231v-30h32v30H24zM24 0v-190h32V0H24" id="R"/><g id="h"><use transform="matrix(0.06172839506172839,0,0,0.06172839506172839,0,0)" xlink:href="#O"/><use transform="matrix(0.06172839506172839,0,0,0.06172839506172839,12.345679012345679,0)" xlink:href="#P"/><use transform="matrix(0.06172839506172839,0,0,0.06172839506172839,23.45679012345679,0)" xlink:href="#Q"/><use transform="matrix(0.06172839506172839,0,0,0.06172839506172839,29.62962962962963,0)" xlink:href="#R"/><use transform="matrix(0.06172839506172839,0,0,0.06172839506172839,34.50617283950617,0)" xlink:href="#L"/><use transform="matrix(0.06172839506172839,0,0,0.06172839506172839,46.85185185185185,0)" xlink:href="#N"/><use transform="matrix(0.06172839506172839,0,0,0.06172839506172839,59.197530864197525,0)" xlink:href="#J"/></g><path fill="#3a414a" d="M143 4C61 4 22-44 18-125c-5-107 100-154 193-111 17 8 29 25 37 43l-32 9c-13-25-37-40-76-40-61 0-88 39-88 99 0 61 29 100 91 101 35 0 62-11 79-27v-45h-74v-28h105v86C228-13 192 4 143 4" id="S"/><path fill="#3a414a" d="M127-220V0H93v-220H8v-28h204v28h-85" id="T"/><g id="i"><use transform="matrix(0.06172839506172839,0,0,0.06172839506172839,0,0)" xlink:href="#S"/><use transform="matrix(0.06172839506172839,0,0,0.06172839506172839,17.28395061728395,0)" xlink:href="#D"/><use transform="matrix(0.06172839506172839,0,0,0.06172839506172839,32.09876543209876,0)" xlink:href="#T"/></g><g id="j"><use transform="matrix(0.06172839506172839,0,0,0.06172839506172839,0,0)" xlink:href="#I"/><use transform="matrix(0.06172839506172839,0,0,0.06172839506172839,7.345679012345679,0)" xlink:href="#H"/><use transform="matrix(0.06172839506172839,0,0,0.06172839506172839,19.691358024691358,0)" xlink:href="#G"/><use transform="matrix(0.06172839506172839,0,0,0.06172839506172839,30.80246913580247,0)" xlink:href="#L"/><use transform="matrix(0.06172839506172839,0,0,0.06172839506172839,43.148148148148145,0)" xlink:href="#F"/><use transform="matrix(0.06172839506172839,0,0,0.06172839506172839,55.49382716049382,0)" xlink:href="#I"/><use transform="matrix(0.06172839506172839,0,0,0.06172839506172839,62.8395061728395,0)" xlink:href="#P"/><use transform="matrix(0.06172839506172839,0,0,0.06172839506172839,73.9506172839506,0)" xlink:href="#H"/><use transform="matrix(0.06172839506172839,0,0,0.06172839506172839,86.29629629629629,0)" xlink:href="#J"/></g><path fill="#3a414a" d="M0 4l72-265h28L28 4H0" id="U"/><path fill="#3a414a" d="M115-194c53 0 69 39 70 98 0 66-23 100-70 100C84 3 66-7 56-30L54 0H23l1-261h32v101c10-23 28-34 59-34zm-8 174c40 0 45-34 45-75 0-40-5-75-45-74-42 0-51 32-51 76 0 43 10 73 51 73" id="V"/><path fill="#3a414a" d="M24 0v-261h32V0H24" id="W"/><path fill="#3a414a" d="M177-190C167-65 218 103 67 71c-23-6-38-20-44-43l32-5c15 47 100 32 89-28v-30C133-14 115 1 83 1 29 1 15-40 15-95c0-56 16-97 71-98 29-1 48 16 59 35 1-10 0-23 2-32h30zM94-22c36 0 50-32 50-73 0-42-14-75-50-75-39 0-46 34-46 75s6 73 46 73" id="X"/><path fill="#3a414a" d="M155-56V0h-30v-56H8v-25l114-167h33v167h35v25h-35zm-30-156c-27 46-58 90-88 131h88v-131" id="Y"/><path fill="#3a414a" d="M101-251c82-7 93 87 43 132L82-64C71-53 59-42 53-27h129V0H18c2-99 128-94 128-182 0-28-16-43-45-43s-46 15-49 41l-32-3c6-41 34-60 81-64" id="Z"/><g id="k"><use transform="matrix(0.06172839506172839,0,0,0.06172839506172839,0,0)" xlink:href="#U"/><use transform="matrix(0.06172839506172839,0,0,0.06172839506172839,6.172839506172839,0)" xlink:href="#V"/><use transform="matrix(0.06172839506172839,0,0,0.06172839506172839,18.51851851851852,0)" xlink:href="#W"/><use transform="matrix(0.06172839506172839,0,0,0.06172839506172839,23.395061728395063,0)" xlink:href="#L"/><use transform="matrix(0.06172839506172839,0,0,0.06172839506172839,35.74074074074074,0)" xlink:href="#X"/><use transform="matrix(0.06172839506172839,0,0,0.06172839506172839,48.08641975308642,0)" xlink:href="#U"/><use transform="matrix(0.06172839506172839,0,0,0.06172839506172839,54.25925925925926,0)" xlink:href="#Y"/><use transform="matrix(0.06172839506172839,0,0,0.06172839506172839,66.60493827160494,0)" xlink:href="#Z"/></g><path fill="#333" d="M135-194c53 0 70 44 70 98 0 56-19 98-73 100-31 1-45-17-59-34 3 33 2 69 2 105H25l-1-265h48c2 10 0 23 3 31 11-24 29-35 60-35zM114-30c33 0 39-31 40-66 0-38-9-64-40-64-56 0-55 130 0 130" id="aa"/><path fill="#333" d="M185-48c-13 30-37 53-82 52C43 2 14-33 14-96s30-98 90-98c62 0 83 45 84 108H66c0 31 8 55 39 56 18 0 30-7 34-22zm-45-69c5-46-57-63-70-21-2 6-4 13-4 21h74" id="ab"/><path fill="#333" d="M135-150c-39-12-60 13-60 57V0H25l-1-190h47c2 13-1 29 3 40 6-28 27-53 61-41v41" id="ac"/><path fill="#333" d="M220-157c-53 9-28 100-34 157h-49v-107c1-27-5-49-29-50C55-147 81-57 75 0H25l-1-190h47c2 12-1 28 3 38 10-53 101-56 108 0 13-22 24-43 59-42 82 1 51 116 57 194h-49v-107c-1-25-5-48-29-50" id="ad"/><path fill="#333" d="M25-224v-37h50v37H25zM25 0v-190h50V0H25" id="ae"/><path fill="#333" d="M115-3C79 11 28 4 28-45v-112H4v-33h27l15-45h31v45h36v33H77v99c-1 23 16 31 38 25v30" id="af"/><path fill="#333" d="M88-194c31-1 46 15 58 34l-1-101h50l1 261h-48c-2-10 0-23-3-31C134-8 116 4 84 4 32 4 16-41 15-95c0-56 19-97 73-99zm17 164c33 0 40-30 41-66 1-37-9-64-41-64s-38 30-39 65c0 43 13 65 39 65" id="ag"/><path fill="#333" d="M135-194c87-1 58 113 63 194h-50c-7-57 23-157-34-157-59 0-34 97-39 157H25l-1-190h47c2 12-1 28 3 38 12-26 28-41 61-42" id="ah"/><path fill="#333" d="M123 10C108 53 80 86 19 72V37c35 8 53-11 59-39L3-190h52l48 148c12-52 28-100 44-148h51" id="ai"/><g id="l"><use transform="matrix(0.04938271604938272,0,0,0.04938271604938272,0,0)" xlink:href="#aa"/><use transform="matrix(0.04938271604938272,0,0,0.04938271604938272,10.814814814814815,0)" xlink:href="#ab"/><use transform="matrix(0.04938271604938272,0,0,0.04938271604938272,20.69135802469136,0)" xlink:href="#ac"/><use transform="matrix(0.04938271604938272,0,0,0.04938271604938272,27.604938271604947,0)" xlink:href="#ad"/><use transform="matrix(0.04938271604938272,0,0,0.04938271604938272,43.40740740740741,0)" xlink:href="#ae"/><use transform="matrix(0.04938271604938272,0,0,0.04938271604938272,48.345679012345684,0)" xlink:href="#af"/><use transform="matrix(0.04938271604938272,0,0,0.04938271604938272,54.22222222222223,0)" xlink:href="#v"/><use transform="matrix(0.04938271604938272,0,0,0.04938271604938272,59.1604938271605,0)" xlink:href="#ag"/><use transform="matrix(0.04938271604938272,0,0,0.04938271604938272,69.97530864197532,0)" xlink:href="#ab"/><use transform="matrix(0.04938271604938272,0,0,0.04938271604938272,79.85185185185186,0)" xlink:href="#ah"/><use transform="matrix(0.04938271604938272,0,0,0.04938271604938272,90.66666666666667,0)" xlink:href="#ai"/></g><path fill="#3a414a" d="M85-194c31 0 48 13 60 33l-1-100h32l1 261h-30c-2-10 0-23-3-31C134-8 116 4 85 4 32 4 16-35 15-94c0-66 23-100 70-100zm9 24c-40 0-46 34-46 75 0 40 6 74 45 74 42 0 51-32 51-76 0-42-9-74-50-73" id="aj"/><g id="m"><use transform="matrix(0.06172839506172839,0,0,0.06172839506172839,0,0)" xlink:href="#C"/><use transform="matrix(0.06172839506172839,0,0,0.06172839506172839,14.814814814814813,0)" xlink:href="#I"/><use transform="matrix(0.06172839506172839,0,0,0.06172839506172839,22.160493827160494,0)" xlink:href="#L"/><use transform="matrix(0.06172839506172839,0,0,0.06172839506172839,34.50617283950617,0)" xlink:href="#Q"/><use transform="matrix(0.06172839506172839,0,0,0.06172839506172839,40.67901234567901,0)" xlink:href="#H"/><use transform="matrix(0.06172839506172839,0,0,0.06172839506172839,53.02469135802469,0)" xlink:href="#P"/><use transform="matrix(0.06172839506172839,0,0,0.06172839506172839,64.1358024691358,0)" xlink:href="#Q"/><use transform="matrix(0.06172839506172839,0,0,0.06172839506172839,70.30864197530863,0)" xlink:href="#H"/><use transform="matrix(0.06172839506172839,0,0,0.06172839506172839,82.65432098765432,0)" xlink:href="#aj"/></g><path fill="#3a414a" d="M233-177c-1 41-23 64-60 70L243 0h-38l-65-103H63V0H30v-248c88 3 205-21 203 71zM63-129c60-2 137 13 137-47 0-61-80-42-137-45v92" id="ak"/><g id="n"><use transform="matrix(0.06172839506172839,0,0,0.06172839506172839,0,0)" xlink:href="#ak"/><use transform="matrix(0.06172839506172839,0,0,0.06172839506172839,15.987654320987653,0)" xlink:href="#H"/><use transform="matrix(0.06172839506172839,0,0,0.06172839506172839,28.333333333333332,0)" xlink:href="#G"/><use transform="matrix(0.06172839506172839,0,0,0.06172839506172839,39.44444444444444,0)" xlink:href="#L"/><use transform="matrix(0.06172839506172839,0,0,0.06172839506172839,51.79012345679012,0)" xlink:href="#F"/><use transform="matrix(0.06172839506172839,0,0,0.06172839506172839,64.1358024691358,0)" xlink:href="#I"/><use transform="matrix(0.06172839506172839,0,0,0.06172839506172839,71.48148148148148,0)" xlink:href="#P"/><use transform="matrix(0.06172839506172839,0,0,0.06172839506172839,82.5925925925926,0)" xlink:href="#H"/></g></defs></g></svg>